<svg xmlns="http://www.w3.org/2000/svg" viewBox="0 0 29.41 29.41"><defs><style>.cls-1{fill:#9b5ab6;}.cls-2{fill:#834896;}.cls-3{fill:#f39b12;}.cls-4{fill:#2c3d50;}.cls-5{fill:#e67365;}.cls-6{fill:#f1c30f;}</style></defs><g id="Layer_2" data-name="Layer 2"><g id="Layer_1-2" data-name="Layer 1"><path class="cls-1" d="M29.41,14.7A14.71,14.71,0,1,1,14.71,0,14.7,14.7,0,0,1,29.41,14.7Z"/><path class="cls-2" d="M23,9.88h-.13l-.15.2,0,0L21.55,9a.1.1,0,0,0-.1,0l-.2.06-.18-.19H21L19.53,7.33h-.1a0,0,0,0,0,0,0h0l-.2.15L19,7.33a.1.1,0,0,0-.09,0,.09.09,0,0,0,0,.1h0l.08.23-.19.16a.1.1,0,0,0,0,.1s0,0,0,0L29,18.19a14.07,14.07,0,0,0,.33-2Z"/><path class="cls-2" d="M17.86,8.34h0L16.4,6.88l-.19.33s0,0,0,0L15,6a.08.08,0,0,0-.1,0l-.22.08,0,0h0l-.11-.12H14.4a0,0,0,0,0,0,0h0v.25l-.23.1a.11.11,0,0,0-.05.09.09.09,0,0,0,.06.07h0l.26.32a.1.1,0,0,0,.07.07l1.19,1.21h0l-.17.29L14.06,6.88,13.9,9,11.83,6.94a.09.09,0,0,0-.1,0l-.22.13-.19-.17h-.14l.05.25L11,7.35a.08.08,0,0,0,0,.09L12.3,8.79l.51,1.3-2.33-.36,1.63,1.62-1.22.38L8.58,9.42a.1.1,0,0,0-.09,0l-.23.09,0,0h0l-.1-.12H7.94v.25l-.23.1a.08.08,0,0,0,0,.09.09.09,0,0,0,.06.07h0l.26.32a.09.09,0,0,0,.06.07l3.25,3.27-.53.49L8.23,11.48h-.1l-.08.1H8L6.86,10.42H6.75l-.19.17-.22-.12a.06.06,0,0,0-.09,0,.08.08,0,0,0,0,.09h0l.09.22L6.14,11a.07.07,0,0,0,0,.09l2.54,2.55,0,.05H8.39a.09.09,0,0,0-.06.15h0l.19.18-.07.21a.08.08,0,0,0,0,.09l1.59,1.6h0l-.07.21H9.78a.08.08,0,0,0-.08.06.08.08,0,0,0,0,.09h0l.19.18-.06.21a.1.1,0,0,0,0,.1l5.16,5.16v.2L8.26,15.36a.08.08,0,0,0-.08-.06H8.09L7.83,15h0a.09.09,0,0,0-.07,0h0l0,0h0l-.09.23H7.35a.08.08,0,0,0-.08.06.08.08,0,0,0,0,.09h0l.19.17-.07.21a.1.1,0,0,0,0,.1L20,28.44a14.74,14.74,0,0,0,9-10.09L18.51,7.9ZM8.66,13.6Z"/><path class="cls-3" d="M21.17,15.71l.1-.23h-.12l-.22.13-.19-.17a.09.09,0,0,0-.1,0,.09.09,0,0,0,0,.09h0l0,.24-.22.13a.11.11,0,0,0,0,.09.11.11,0,0,0,.08.07h0l.25,0,.05.24h0a.1.1,0,0,0,.08.07h0a.08.08,0,0,0,.07-.05L21,16l.24,0h0a.08.08,0,0,0,.07-.05.08.08,0,0,0,0-.1Z"/><path class="cls-3" d="M21.55,12.73l-.24-.06,0-.25h-.08a.09.09,0,0,0-.08,0l-.14.21-.24-.06a.08.08,0,0,0-.09,0,.09.09,0,0,0,0,.1h0l.15.19-.13.22a.09.09,0,0,0,0,.1.09.09,0,0,0,.06,0s0,0,0,0h0l.23-.09.16.19h0a.09.09,0,0,0,.07,0h0a.11.11,0,0,0,.05-.09V13l.23-.09h0a.07.07,0,0,0,.05-.08A.08.08,0,0,0,21.55,12.73Z"/><path class="cls-3" d="M20.66,9.32h0l.23.09v.25a.09.09,0,0,0,.06.08h0a.09.09,0,0,0,.07,0h0l.16-.19.23.07h0a.08.08,0,0,0,.07-.13l-.13-.21.14-.2h0a.09.09,0,0,0,0-.1.1.1,0,0,0-.1,0L21.21,9l-.14-.2h-.16v.25l-.24.08a.09.09,0,0,0-.06.08A.08.08,0,0,0,20.66,9.32Z"/><path class="cls-3" d="M18.82,8h.25l.09.23h0a.09.09,0,0,0,.08.06h0s.06,0,.08-.07L19.4,8h.25s.06,0,.08-.06a.09.09,0,0,0,0-.09l-.2-.15.06-.24h-.12a0,0,0,0,0,0,0h0l-.2.15L19,7.33a.1.1,0,0,0-.09,0,.09.09,0,0,0,0,.1h0l.08.23-.19.16a.1.1,0,0,0,0,.1A.09.09,0,0,0,18.82,8Z"/><path class="cls-3" d="M11.05,7.51h0l.24,0,.06.24a.1.1,0,0,0,.07.07h0s.06,0,.08,0h0l.11-.22.24,0h0s.06,0,.07,0a.09.09,0,0,0,0-.1l-.19-.17.1-.22h0a.09.09,0,0,0-.12-.11l-.22.13-.19-.17h-.14l.05.25L11,7.35a.08.08,0,0,0,0,.09A.1.1,0,0,0,11.05,7.51Z"/><path class="cls-3" d="M7.73,9.87h0L8,9.94l0,.25a.09.09,0,0,0,.06.07h0a.08.08,0,0,0,.07,0h0l.14-.2.24.05h0a.07.07,0,0,0,.07,0,.09.09,0,0,0,0-.1l-.16-.19.13-.21h0a.08.08,0,0,0,0-.1.1.1,0,0,0-.09,0l-.24.09L8.09,9.3H7.94v.25l-.23.1a.08.08,0,0,0,0,.09A.09.09,0,0,0,7.73,9.87Z"/><path class="cls-3" d="M9.21,13.68H9l-.08-.24H8.72l-.08.24H8.39a.09.09,0,0,0-.06.15h0l.2.15-.08.24a.08.08,0,0,0,0,.09l0,0H8.6l.2-.14.2.14h.05l0,0a.08.08,0,0,0,0-.09L9.06,14l.2-.15h0a.08.08,0,0,0,0-.09A.08.08,0,0,0,9.21,13.68Z"/><path class="cls-3" d="M10.61,16.14h-.26l-.08-.23h-.16l-.08.23H9.78a.08.08,0,0,0-.08.06.08.08,0,0,0,0,.09h0l.2.15-.07.24a.1.1,0,0,0,0,.1H10l.2-.14.2.14h.11a.13.13,0,0,0,0-.1l-.08-.24.2-.15h0a.07.07,0,0,0,0-.09A.07.07,0,0,0,10.61,16.14Z"/><path class="cls-3" d="M13.05,17.25l-.25,0-.13-.22h-.15l0,.25-.24,0a.08.08,0,0,0-.07.07.07.07,0,0,0,.05.09h0l.22.12,0,.24a.11.11,0,0,0,.05.09h0a.09.09,0,0,0,.06,0h0l.18-.18.22.1h0a.07.07,0,0,0,.06,0,.06.06,0,0,0,0-.09L13,17.57l.16-.18h0a.08.08,0,0,0,0-.09A.09.09,0,0,0,13.05,17.25Z"/><path class="cls-3" d="M14.18,6.48h0l.24.07,0,.25a.1.1,0,0,0,.07.07h0a.08.08,0,0,0,.07,0h0l.13-.21.24,0h0s.05,0,.07,0,0-.06,0-.09l-.16-.19L15,6.13h0A.06.06,0,0,0,15,6a.08.08,0,0,0-.1,0l-.23.09-.17-.19H14.4a0,0,0,0,0,0,0h0v.25l-.23.1a.11.11,0,0,0-.05.09A.09.09,0,0,0,14.18,6.48Z"/><path class="cls-3" d="M23.25,10.28,23,10.19V9.94h-.16l-.15.2L22.46,10a.08.08,0,0,0-.09,0,.09.09,0,0,0,0,.1h0l.14.21-.15.2a.09.09,0,0,0,0,.1.13.13,0,0,0,.07,0h0l.24-.07.14.2h0a.09.09,0,0,0,.07,0h0a.09.09,0,0,0,.06-.07v-.25l.23-.08h0a.09.09,0,0,0,.06-.08A.08.08,0,0,0,23.25,10.28Z"/><path class="cls-3" d="M23,14l.12-.23h0a.09.09,0,0,0-.11-.12l-.24.12-.19-.18h-.15l0,.26-.24.13s-.05.05,0,.09a.08.08,0,0,0,.07.07h0l.26,0,0,.25a.08.08,0,0,0,.07.07h0a.08.08,0,0,0,.07,0h0l.14-.23.26,0h0a.08.08,0,0,0,.08,0,.07.07,0,0,0,0-.09Z"/><path class="cls-3" d="M8.5,12.06h0A.07.07,0,0,0,8.57,12a.1.1,0,0,0-.06-.09l-.23-.08v-.25H8.13L8,11.7l-.24-.08s-.07,0-.09,0a.09.09,0,0,0,0,.1h0l.14.2-.15.21a.07.07,0,0,0,0,.09.08.08,0,0,0,.07,0h0L8,12.23l.15.2h0a.1.1,0,0,0,.07,0h0a.08.08,0,0,0,0-.08v-.25Z"/><path class="cls-3" d="M7.06,10.88l-.22-.13,0-.24h0v0H6.75l-.19.17-.22-.12a.06.06,0,0,0-.09,0,.08.08,0,0,0,0,.09h0l.09.22L6.14,11a.07.07,0,0,0,0,.09.07.07,0,0,0,.06,0h0l.24,0,.11.23h0a.08.08,0,0,0,.07.05h0a.08.08,0,0,0,.07-.07l.06-.24L7,11H7A.1.1,0,0,0,7.1,11,.11.11,0,0,0,7.06,10.88Z"/><path class="cls-3" d="M8.18,15.3H7.93l-.08-.23h0a.09.09,0,0,0-.07,0h0l0,0h0l-.09.23H7.35a.08.08,0,0,0-.08.06.08.08,0,0,0,0,.09h0l.19.14-.07.24a.1.1,0,0,0,0,.1h.1l.2-.14.21.14h.1a.1.1,0,0,0,0-.1L8,15.6l.19-.14h0a.08.08,0,0,0,0-.09A.08.08,0,0,0,8.18,15.3Z"/><path class="cls-3" d="M15.2,21.49c-.08,0-.15,0-.15.08v1.88s.07.08.15.08.16,0,.16-.08V21.57C15.36,21.52,15.29,21.49,15.2,21.49Z"/><polygon class="cls-4" points="15.16 15.65 14.75 16.41 14.52 16.83 14.63 21.35 15.96 21.32 15.85 16.79 15.6 16.39 15.16 15.65"/><polygon class="cls-5" points="18.61 12.01 16.41 12.28 18.28 13.48 16.18 12.77 17.34 14.66 15.75 13.1 15.98 15.31 15.23 13.22 14.47 15.31 14.7 13.1 13.11 14.66 14.28 12.77 12.17 13.48 14.05 12.28 11.84 12.01 14.05 11.74 12.17 10.54 14.28 11.25 13.11 9.36 14.7 10.92 14.47 8.71 15.23 10.8 15.98 8.71 15.75 10.92 17.34 9.36 16.18 11.25 18.28 10.54 16.41 11.74 18.61 12.01"/><path class="cls-6" d="M20.49,12l-2.25.69L20,14.3l-2.33-.36.87,2.18-1.94-1.33-.17,2.35-.51-.88-.66-1.16-.67,1.16-.5.88-.17-2.35-2,1.33.87-2.18-2.33.36,1.73-1.6L10,12l2.25-.69L10.48,9.73l2.33.36L11.94,7.9l2,1.33.17-2.35,1.17,2,1.17-2,.17,2.35L18.51,7.9l-.87,2.19L20,9.73l-1.73,1.59Zm-4.08.27,2.2-.27-2.2-.27,1.87-1.2-2.11.71,1.17-1.89-1.59,1.56L16,8.71l-.75,2.09-.76-2.09.23,2.21L13.11,9.36l1.17,1.89-2.11-.71,1.88,1.2L11.84,12l2.21.27-1.88,1.2,2.11-.71-1.17,1.89L14.7,13.1l-.23,2.21.76-2.09L16,15.31l-.23-2.21,1.59,1.56-1.17-1.89,2.11.71Z"/></g></g></svg>