<svg xmlns="http://www.w3.org/2000/svg" viewBox="0 0 29.41 29.41"><defs><style>.cls-1{fill:#9b5ab6;}.cls-2{fill:#834896;}.cls-3{fill:#ecf0f0;}.cls-4{fill:#c8cdd2;}</style></defs><g id="Layer_2" data-name="Layer 2"><g id="Layer_1-2" data-name="Layer 1"><path class="cls-1" d="M29.41,14.71A14.71,14.71,0,1,1,14.71,0,14.7,14.7,0,0,1,29.41,14.71Z"/><path class="cls-2" d="M29.41,14.71c0-.31,0-.61,0-.91L22.5,6.91a3.52,3.52,0,0,0-5,0l-4,4a1.05,1.05,0,0,0,0,1.5l1,1,0,0-1.15,1.15,0,0-1-1a1.06,1.06,0,0,0-1.5,0l-4,4a3.53,3.53,0,0,0,0,5l6.89,6.88c.3,0,.6,0,.91,0A14.7,14.7,0,0,0,29.41,14.71Z"/><path class="cls-3" d="M15.12,16.71a1.06,1.06,0,0,0-.75.31l-4,4a1.39,1.39,0,0,1-1,.41,1.43,1.43,0,0,1-1-.41,1.4,1.4,0,0,1,0-2l4-4a1.06,1.06,0,0,0,.31-.75,1,1,0,0,0-.31-.75,1.06,1.06,0,0,0-1.5,0l-4,4a3.52,3.52,0,0,0,2.49,6,3.49,3.49,0,0,0,2.49-1l4-4a1.06,1.06,0,0,0-.75-1.81Z"/><path class="cls-3" d="M22.5,6.91a3.52,3.52,0,0,0-5,0l-4,4a1.06,1.06,0,0,0,.75,1.81,1.08,1.08,0,0,0,.75-.31l4-4A1.43,1.43,0,0,1,20,8a1.4,1.4,0,0,1,1.4,1.4,1.43,1.43,0,0,1-.41,1l-4,4a1,1,0,0,0-.31.74,1.08,1.08,0,0,0,.31.76,1.06,1.06,0,0,0,1.5,0l4-4A3.54,3.54,0,0,0,22.5,6.91Z"/><path class="cls-4" d="M11.1,17.25a1,1,0,0,0,.31.75,1.06,1.06,0,0,0,1.5,0L18,12.91a1.06,1.06,0,0,0,0-1.5,1,1,0,0,0-.75-.31,1.06,1.06,0,0,0-.75.31L11.41,16.5A1.06,1.06,0,0,0,11.1,17.25Z"/></g></g></svg>