<svg xmlns="http://www.w3.org/2000/svg" viewBox="0 0 512 512">
  <defs>
    <linearGradient id="goldShine" x1="0" y1="0" x2="1" y2="1">
      <stop offset="0%" stop-color="#FFD060"/>
      <stop offset="40%" stop-color="#FFB830"/>
      <stop offset="55%" stop-color="#FFF2C0"/>
      <stop offset="70%" stop-color="#FFB830"/>
      <stop offset="100%" stop-color="#E89B00"/>
    </linearGradient>
  </defs>
  <rect width="512" height="512" rx="96" fill="#1a2744"/>
  <text x="256" y="390" font-size="380" font-weight="bold" text-anchor="middle" font-family="Georgia, 'Times New Roman', serif" fill="url(#goldShine)">B</text>
  <!-- sparkle -->
  <g transform="translate(370, 95)" fill="#ffffff">
    <polygon points="0,-18 4,-4 18,0 4,4 0,18 -4,4 -18,0 -4,-4" opacity="0.95"/>
    <polygon points="0,-10 2,-2 10,0 2,2 0,10 -2,2 -10,0 -2,-2" transform="translate(30, 30)" opacity="0.6"/>
    <polygon points="0,-6 1.5,-1.5 6,0 1.5,1.5 0,6 -1.5,1.5 -6,0 -1.5,-1.5" transform="translate(-10, 40)" opacity="0.4"/>
  </g>
</svg>
